<svg xmlns="http://www.w3.org/2000/svg" width="25.393" height="27.345" viewBox="0 0 25.393 27.345">
  <path id="bell-o" d="M12.94,25.88a.216.216,0,0,0-.244-.244,2.216,2.216,0,0,1-2.2-2.2.244.244,0,0,0-.488,0A2.684,2.684,0,0,0,12.7,26.125a.216.216,0,0,0,.244-.244Zm-10.163-4.4H22.615q-4.059-4.578-4.059-12.7a3.93,3.93,0,0,0-.366-1.6,5.839,5.839,0,0,0-1.053-1.572,5.1,5.1,0,0,0-1.854-1.228A6.751,6.751,0,0,0,12.7,3.907a6.708,6.708,0,0,0-2.586.481A5.137,5.137,0,0,0,8.255,5.616,5.784,5.784,0,0,0,7.2,7.187a3.953,3.953,0,0,0-.366,1.6q0,8.119-4.059,12.7Zm22.615,0a1.979,1.979,0,0,1-1.953,1.953H16.6A3.908,3.908,0,0,1,12.7,27.345,3.908,3.908,0,0,1,8.79,23.438H1.953a1.877,1.877,0,0,1-1.373-.58A1.877,1.877,0,0,1,0,21.485a13.463,13.463,0,0,0,1.389-1.343,12.082,12.082,0,0,0,1.3-1.824A13.733,13.733,0,0,0,3.823,15.9a17.752,17.752,0,0,0,.763-3.143,25.065,25.065,0,0,0,.3-3.967A6.344,6.344,0,0,1,6.669,4.479,7.546,7.546,0,0,1,11.353,2.06a1.518,1.518,0,0,1-.122-.595A1.411,1.411,0,0,1,11.658.428a1.473,1.473,0,0,1,2.075,0,1.414,1.414,0,0,1,.428,1.038,1.514,1.514,0,0,1-.122.595,7.546,7.546,0,0,1,4.684,2.419,6.348,6.348,0,0,1,1.786,4.311,24.946,24.946,0,0,0,.3,3.967A17.841,17.841,0,0,0,21.57,15.9a13.661,13.661,0,0,0,1.137,2.419A12.154,12.154,0,0,0,24,20.142,13.361,13.361,0,0,0,25.393,21.485Z" transform="translate(0 0)" fill="#fff"/>
</svg>
