<svg id="GTI_Logo" data-name="GTI Logo" xmlns="http://www.w3.org/2000/svg" width="209.944" height="30.834" viewBox="0 0 209.944 30.834">
  <g id="Group_5" data-name="Group 5" transform="translate(37.941 4.91)">
    <path id="Path_52" data-name="Path 52" d="M506.354,97.276a3.126,3.126,0,0,0,2.662-3.086,3.18,3.18,0,0,0-3.3-3.147H501a.749.749,0,0,0-.756.757v8.835a.749.749,0,0,0,.756.757.724.724,0,0,0,.756-.727V97.336h2.663l3.57,3.752a.858.858,0,0,0,1.18.121.724.724,0,0,0-.061-1.028Zm-4.6-1.391V92.5h3.963a1.7,1.7,0,1,1,0,3.389Z" transform="translate(-484.297 -90.892)" fill="#ffba00"/>
    <path id="Path_53" data-name="Path 53" d="M541.573,90.653a5.3,5.3,0,1,0,5.295,5.3A5.281,5.281,0,0,0,541.573,90.653Zm0,9.077a3.782,3.782,0,1,1,3.782-3.782A3.783,3.783,0,0,1,541.573,99.73Z" transform="translate(-506.355 -90.653)" fill="#ffba00"/>
    <path id="Path_54" data-name="Path 54" d="M587.449,90.887a.749.749,0,0,0-.756.757v4.448a3.782,3.782,0,0,1-7.564,0V91.644a.757.757,0,1,0-1.513,0v4.448a5.3,5.3,0,1,0,10.59,0V91.644A.749.749,0,0,0,587.449,90.887Z" transform="translate(-531.659 -90.796)" fill="#ffba00"/>
    <path id="Path_55" data-name="Path 55" d="M631.731,90.887a.749.749,0,0,0-.756.757v7.079l-7.383-7.443c-.3-.3-.453-.393-.756-.393a.749.749,0,0,0-.756.757v8.9a.756.756,0,1,0,1.512,0V93.458l7.383,7.443c.3.3.453.394.756.394a.75.75,0,0,0,.756-.757v-8.9A.749.749,0,0,0,631.731,90.887Z" transform="translate(-558.875 -90.796)" fill="#ffba00"/>
    <path id="Path_56" data-name="Path 56" d="M671.717,91.043h-3.328a.749.749,0,0,0-.756.757v8.774a.749.749,0,0,0,.756.757h3.328a5.146,5.146,0,1,0,0-10.288Zm0,8.835h-2.572V92.5h2.572a3.692,3.692,0,1,1,0,7.383Z" transform="translate(-586.759 -90.892)" fill="#ffba00"/>
    <path id="Path_57" data-name="Path 57" d="M731.283,91.043h-9.076a.727.727,0,1,0,0,1.452h3.782v8.139a.756.756,0,1,0,1.512,0V92.5h3.782a.727.727,0,1,0,0-1.452Z" transform="translate(-619.701 -90.892)" fill="#ffba00"/>
    <path id="Path_58" data-name="Path 58" d="M767.345,97.276a3.125,3.125,0,0,0,2.662-3.086,3.18,3.18,0,0,0-3.3-3.147h-4.72a.749.749,0,0,0-.756.757v8.835a.75.75,0,0,0,.756.757.725.725,0,0,0,.756-.727V97.336h2.663l3.57,3.752a.858.858,0,0,0,1.18.121.724.724,0,0,0-.06-1.028Zm-4.6-1.391V92.5h3.963a1.7,1.7,0,1,1,0,3.389Z" transform="translate(-644.052 -90.892)" fill="#ffba00"/>
    <path id="Path_59" data-name="Path 59" d="M808.66,90.887a.749.749,0,0,0-.756.757v4.448a3.782,3.782,0,0,1-7.564,0V91.644a.757.757,0,1,0-1.513,0v4.448a5.3,5.3,0,1,0,10.59,0V91.644A.749.749,0,0,0,808.66,90.887Z" transform="translate(-667.064 -90.796)" fill="#ffba00"/>
    <path id="Path_60" data-name="Path 60" d="M846.882,91.043h-9.077a.727.727,0,1,0,0,1.452h3.782v8.139a.756.756,0,1,0,1.512,0V92.5h3.782a.727.727,0,1,0,0-1.452Z" transform="translate(-690.46 -90.892)" fill="#ffba00"/>
    <path id="Path_61" data-name="Path 61" d="M886.057,90.887a.749.749,0,0,0-.756.757v3.449h-6.959V91.644a.756.756,0,1,0-1.512,0v8.9a.756.756,0,1,0,1.512,0V96.545H885.3v3.994a.756.756,0,1,0,1.513,0v-8.9A.749.749,0,0,0,886.057,90.887Z" transform="translate(-714.811 -90.796)" fill="#ffba00"/>
    <path id="Path_62" data-name="Path 62" d="M467.783,95.971v-.019h-.1c-.007,0-.013,0-.02,0s-.014,0-.022,0h-1.725a.727.727,0,1,0,0,1.452h.99v1.418a3.73,3.73,0,0,1-2.481.908,3.782,3.782,0,0,1,0-7.564,3.7,3.7,0,0,1,2.662,1.119.767.767,0,0,0,1.09-.03.731.731,0,0,0,0-1.058,5.3,5.3,0,1,0,0,7.5.96.96,0,0,0,.242-.605V96.7A.739.739,0,0,0,467.783,95.971Z" transform="translate(-459.135 -90.653)" fill="#ffba00"/>
  </g>
  <g id="Group_6" data-name="Group 6" transform="translate(51.632 22.119)">
    <path id="Path_63" data-name="Path 63" d="M494.431,135.041h.878v5.3h-.878Z" transform="translate(-494.431 -135.033)" fill="#fff"/>
    <path id="Path_64" data-name="Path 64" d="M520.6,135.02l3.527,3.177V135.02h.886v5.307l-3.536-3.176v3.168H520.6Z" transform="translate(-510.447 -135.02)" fill="#fff"/>
    <path id="Path_65" data-name="Path 65" d="M555.873,135.041h4.421v.886H558.53v4.413h-.886v-4.413h-1.771Z" transform="translate(-532.04 -135.033)" fill="#fff"/>
    <path id="Path_66" data-name="Path 66" d="M594.7,135.041v.886h-2.65v1.329h2.65v.878h-2.65v1.321h2.65v.886h-3.528v-5.3Z" transform="translate(-553.647 -135.033)" fill="#fff"/>
    <path id="Path_67" data-name="Path 67" d="M624.167,135.041h.878v4.413h2.65v.886h-3.527Z" transform="translate(-573.844 -135.033)" fill="#fff"/>
    <path id="Path_68" data-name="Path 68" d="M657.163,135.041h.878v4.413h2.65v.886h-3.527Z" transform="translate(-594.041 -135.033)" fill="#fff"/>
    <path id="Path_69" data-name="Path 69" d="M690.156,135.041h.878v5.3h-.878Z" transform="translate(-614.236 -135.033)" fill="#fff"/>
    <path id="Path_70" data-name="Path 70" d="M718.971,135.041a2.584,2.584,0,0,1,1.031.206,2.675,2.675,0,0,1,.848.573l-.634.626a1.68,1.68,0,0,0-1.244-.519,1.764,1.764,0,1,0,0,3.527,1.744,1.744,0,0,0,.736-.156,1.768,1.768,0,0,0,.592-.439v-.725h-1.328v-.878h2.214v1.894a2.858,2.858,0,0,1-.423.488,2.712,2.712,0,0,1-.523.378,2.587,2.587,0,0,1-.6.241,2.626,2.626,0,0,1-.664.083,2.65,2.65,0,0,1,0-5.3Z" transform="translate(-630.252 -135.033)" fill="#fff"/>
    <path id="Path_71" data-name="Path 71" d="M756.288,135.041v.886h-2.65v1.329h2.65v.878h-2.65v1.321h2.65v.886h-3.527v-5.3Z" transform="translate(-652.558 -135.033)" fill="#fff"/>
    <path id="Path_72" data-name="Path 72" d="M785.756,135.02l3.528,3.177V135.02h.886v5.307l-3.536-3.176v3.168h-.878Z" transform="translate(-672.754 -135.02)" fill="#fff"/>
    <path id="Path_73" data-name="Path 73" d="M823.693,135.041a2.56,2.56,0,0,1,1.028.206,2.677,2.677,0,0,1,.844.573l-.626.626a1.7,1.7,0,0,0-1.246-.519,1.723,1.723,0,0,0-.687.137,1.782,1.782,0,0,0-.562.378,1.839,1.839,0,0,0-.382.561,1.744,1.744,0,0,0,0,1.375,1.884,1.884,0,0,0,.378.561,1.728,1.728,0,0,0,.561.378,1.752,1.752,0,0,0,.691.137,1.731,1.731,0,0,0,1.246-.511l.626.618a2.682,2.682,0,0,1-.844.573,2.648,2.648,0,0,1-2.058,0,2.745,2.745,0,0,1-.843-.569,2.661,2.661,0,0,1-.573-.84,2.609,2.609,0,0,1,0-2.05,2.706,2.706,0,0,1,1.416-1.42A2.556,2.556,0,0,1,823.693,135.041Z" transform="translate(-694.35 -135.033)" fill="#fff"/>
    <path id="Path_74" data-name="Path 74" d="M860.137,135.041v.886h-2.65v1.329h2.65v.878h-2.65v1.321h2.65v.886h-3.528v-5.3Z" transform="translate(-716.124 -135.033)" fill="#fff"/>
  </g>
  <path id="Path_75" data-name="Path 75" d="M390.674,91.688a2.229,2.229,0,0,0-1.523-.652,13.347,13.347,0,0,0-2.872-6.206,1.54,1.54,0,0,0-2.176-2.09,13.369,13.369,0,0,0-6.271-2.622,2.241,2.241,0,0,0-4.479.114,13.34,13.34,0,0,0-5.906,2.762,1.54,1.54,0,0,0-2.107,2.159,13.37,13.37,0,0,0-2.741,6.7,1.54,1.54,0,0,0-.01,3.032,13.379,13.379,0,0,0,2.686,6.7,1.539,1.539,0,0,0,2.071,2.156,13.345,13.345,0,0,0,6.1,2.862,2.241,2.241,0,0,0,4.481.086,13.364,13.364,0,0,0,6.28-2.69,1.539,1.539,0,0,0,2.138-2.087,13.356,13.356,0,0,0,2.857-6.4,2.24,2.24,0,0,0,1.472-3.823Zm-6.787-6.59a1.541,1.541,0,0,0,1.9.216,12.668,12.668,0,0,1,2.681,5.811,2.227,2.227,0,0,0-.975.562,2.266,2.266,0,0,0-.21.256l-6.784-2.63a1.536,1.536,0,0,0-.343-.989l3.718-3.235Zm3.041,8.771-7.195,4.769a1.635,1.635,0,0,0-.124-.142,1.533,1.533,0,0,0-.72-.4l.339-7.279a1.532,1.532,0,0,0,1.112-.827l6.627,2.57a2.066,2.066,0,0,0-.04,1.314Zm-9.743-12.038a2.226,2.226,0,0,0,.58-1.031,12.687,12.687,0,0,1,5.873,2.447,1.54,1.54,0,0,0-.122,1.25l-3.908,3.4a1.536,1.536,0,0,0-.628-.142l-2.021-5.739A2.216,2.216,0,0,0,377.185,81.831Zm-9.521,19.489c-.012-.012-.024-.022-.037-.033l1.78-5.1a2.261,2.261,0,0,0,.37.036,2.231,2.231,0,0,0,1.588-.658c.043-.043.076-.094.116-.14l5.636,3.526a1.542,1.542,0,0,0-.135.609l-9.069,2.1A1.523,1.523,0,0,0,367.665,101.32Zm1.623-7.839a.695.695,0,0,1,.983.983.712.712,0,0,1-.983,0,.694.694,0,0,1,0-.983Zm8.249,4.918-5.686-3.557a2.228,2.228,0,0,0,.019-1.685l5.8-3.034a1.526,1.526,0,0,0,.879.654l-.34,7.3A1.525,1.525,0,0,0,377.537,98.4Zm-2.431-18.648a.695.695,0,0,1,.983.983.712.712,0,0,1-.983,0,.694.694,0,0,1,0-.983Zm-1.644,1.156a2.213,2.213,0,0,0,2.89,1.443l1.955,5.552a1.537,1.537,0,0,0-.433.3,1.656,1.656,0,0,0-.122.14l-9.6-3.953a1.539,1.539,0,0,0-.224-.906A12.667,12.667,0,0,1,373.462,80.907Zm-5.757,4.473a1.549,1.549,0,0,0,.249-.329l9.505,3.914a1.549,1.549,0,0,0-.026.505l-5.916,3.1c-.05-.061-.094-.126-.151-.183a2.233,2.233,0,0,0-1.588-.658,2.286,2.286,0,0,0-.365.036l-1.972-6.171A1.516,1.516,0,0,0,367.705,85.381Zm-1.864.241a1.541,1.541,0,0,0,.955.2l1.968,6.159a2.172,2.172,0,0,0-1.178,1.517l-3.192-.287a1.537,1.537,0,0,0-1.112-1.32A12.686,12.686,0,0,1,365.841,85.622Zm-.077,15.479a12.7,12.7,0,0,1-2.491-6.246,1.531,1.531,0,0,0,1.039-.966l3.24.291a2.161,2.161,0,0,0,1.207,1.784l-1.735,4.972A1.543,1.543,0,0,0,365.764,101.1Zm7.788,4.828a12.659,12.659,0,0,1-5.7-2.656,1.539,1.539,0,0,0,.259-.945l9.016-2.092a1.473,1.473,0,0,0,.5.6l-1.44,3.559a2.266,2.266,0,0,0-.5-.059,2.216,2.216,0,0,0-2.138,1.591Zm2.63,1.146a.712.712,0,0,1-.983,0,.695.695,0,1,1,.983,0Zm1.672-1.065a2.13,2.13,0,0,0-1.032-1.358l1.437-3.551a1.539,1.539,0,0,0,1.351-.428c.031-.031.06-.064.088-.1l3.826,1.739a1.541,1.541,0,0,0,.191,1.2A12.683,12.683,0,0,1,377.854,106.01Zm8.017-4.6a1.54,1.54,0,0,0-1.944.193c-.033.033-.064.067-.093.1l-3.823-1.738a1.548,1.548,0,0,0,.015-.7l7.181-4.76a2.271,2.271,0,0,0,.291.36,2.225,2.225,0,0,0,1.02.576A12.676,12.676,0,0,1,385.871,101.41Zm3.706-7.641a.712.712,0,0,1-.983,0,.695.695,0,1,1,.983,0Z" transform="translate(-361.322 -77.996)" fill="#ffba00"/>
</svg>
