<svg xmlns="http://www.w3.org/2000/svg" width="10.463" height="17.941" viewBox="0 0 10.463 17.941">
  <g id="angle-right" transform="translate(10.829 -15.893) rotate(180)">
    <path id="Path_86" data-name="Path 86" d="M10.829-17.385a.568.568,0,0,0-.18-.414L3.584-24.863l7.065-7.065a.568.568,0,0,0,.18-.414.568.568,0,0,0-.18-.414l-.9-.9a.568.568,0,0,0-.414-.18.568.568,0,0,0-.414.18L.546-25.277a.568.568,0,0,0-.18.414.568.568,0,0,0,.18.414l8.377,8.377a.568.568,0,0,0,.414.18.568.568,0,0,0,.414-.18l.9-.9a.568.568,0,0,0,.18-.414Z" transform="translate(0)" fill="#4a4a4a"/>
  </g>
</svg>
