<svg xmlns="http://www.w3.org/2000/svg" width="26.526" height="20.939" viewBox="0 0 26.526 20.939">
  <path id="new_message_icon" data-name="new message icon" d="M13.206,16.99h-.833V15.562H10.945v-.833L12.67,13l2.26,2.26ZM19.749,6.282a.35.35,0,0,1-.015.491l-5.2,5.2a.337.337,0,1,1-.476-.476l5.2-5.2A.35.35,0,0,1,19.749,6.282Zm1.19,8.833a.467.467,0,0,0-.3-.431.46.46,0,0,0-.52.1l-.952.952a.461.461,0,0,0-.134.327v1.874a2.386,2.386,0,0,1-2.379,2.379H4.283A2.386,2.386,0,0,1,1.9,17.941V5.569A2.386,2.386,0,0,1,4.283,3.189H16.656a2.588,2.588,0,0,1,.669.089.448.448,0,0,0,.476-.119l.729-.729A.467.467,0,0,0,18.663,2a.485.485,0,0,0-.268-.342,4.161,4.161,0,0,0-1.74-.372H4.283A4.284,4.284,0,0,0,0,5.569V17.941a4.284,4.284,0,0,0,4.283,4.283H16.656a4.284,4.284,0,0,0,4.283-4.283ZM19.511,4.141,9.518,14.134v4.283H13.8l9.993-9.993Zm6.6,1.963a1.445,1.445,0,0,0,0-2.022l-2.26-2.26a1.445,1.445,0,0,0-2.022,0L20.463,3.189l4.283,4.283Z" transform="translate(0 -1.286)" fill="#4d7cfe"/>
</svg>
