<svg xmlns="http://www.w3.org/2000/svg" width="22" height="21.999" viewBox="0 0 22 21.999">
  <path id="phone" d="M22,17.375a5.157,5.157,0,0,1-.156,1.1,6.2,6.2,0,0,1-.328,1.07A4.191,4.191,0,0,1,19.609,21.2,6.057,6.057,0,0,1,16.7,22a6.236,6.236,0,0,1-.828-.054,6.335,6.335,0,0,1-.9-.2q-.492-.141-.735-.227t-.867-.32q-.625-.235-.766-.281a14.145,14.145,0,0,1-2.734-1.3A23.556,23.556,0,0,1,5.75,16.25a23.556,23.556,0,0,1-3.375-4.125,14.168,14.168,0,0,1-1.3-2.734Q1.031,9.25.8,8.625t-.32-.867Q.39,7.516.25,7.023a6.476,6.476,0,0,1-.2-.9A6.093,6.093,0,0,1,0,5.3,6.06,6.06,0,0,1,.8,2.391,4.191,4.191,0,0,1,2.453.485,6.224,6.224,0,0,1,3.523.156,5.15,5.15,0,0,1,4.625,0a.872.872,0,0,1,.328.047q.281.093.828,1.187.172.3.469.844t.547.992q.25.445.485.836.047.062.273.39a4.449,4.449,0,0,1,.336.555A1.009,1.009,0,0,1,8,5.3a1.3,1.3,0,0,1-.445.781,7.632,7.632,0,0,1-.969.859,9.429,9.429,0,0,0-.969.828,1.19,1.19,0,0,0-.445.719,1.054,1.054,0,0,0,.078.351q.078.211.133.32t.219.375q.164.266.18.3A16.4,16.4,0,0,0,8.5,13.5a16.4,16.4,0,0,0,3.672,2.719q.031.016.3.18t.375.219a3.28,3.28,0,0,0,.32.133,1.074,1.074,0,0,0,.351.078,1.19,1.19,0,0,0,.719-.445,9.429,9.429,0,0,0,.828-.969,7.632,7.632,0,0,1,.859-.969A1.3,1.3,0,0,1,16.7,14a1.02,1.02,0,0,1,.445.109,4.352,4.352,0,0,1,.555.336q.328.227.39.273.39.235.836.485t.992.547q.547.3.844.469,1.094.547,1.187.828a.872.872,0,0,1,.047.328Z" fill="#778ca2"/>
</svg>
