<svg xmlns="http://www.w3.org/2000/svg" width="20.466" height="20.466" viewBox="0 0 20.466 20.466">
  <path id="search" d="M14.169,8.659a5.306,5.306,0,0,0-1.617-3.893A5.308,5.308,0,0,0,8.659,3.148,5.305,5.305,0,0,0,4.766,4.766,5.305,5.305,0,0,0,3.148,8.659a5.309,5.309,0,0,0,1.617,3.893,5.306,5.306,0,0,0,3.893,1.617,5.3,5.3,0,0,0,3.893-1.617A5.312,5.312,0,0,0,14.169,8.659Zm6.3,10.233a1.6,1.6,0,0,1-1.574,1.574A1.462,1.462,0,0,1,17.785,20l-4.219-4.206a8.422,8.422,0,0,1-4.907,1.525A8.506,8.506,0,0,1,5.3,16.635,8.478,8.478,0,0,1,.683,12.023a8.628,8.628,0,0,1,0-6.728A8.478,8.478,0,0,1,5.3.683a8.628,8.628,0,0,1,6.728,0A8.478,8.478,0,0,1,16.635,5.3a8.495,8.495,0,0,1,.683,3.364,8.42,8.42,0,0,1-1.525,4.907l4.219,4.219A1.507,1.507,0,0,1,20.466,18.892Z" fill="#778ca2"/>
</svg>
